<svg viewBox="0 0 1433 400" xmlns="http://www.w3.org/2000/svg"><g><g><g><g><g><line x1="70" y1="330.75" x2="65" y2="330.75" style="visibility: inherit;" fill="rgb(0, 0, 0)" stroke="rgb(204, 204, 204)" stroke-width="1px"></line><line x1="70" y1="283.5" x2="65" y2="283.5" style="visibility: inherit;" fill="rgb(0, 0, 0)" stroke="rgb(204, 204, 204)" stroke-width="1px"></line><line x1="70" y1="236.24999999999997" x2="65" y2="236.24999999999997" style="visibility: inherit;" fill="rgb(0, 0, 0)" stroke="rgb(204, 204, 204)" stroke-width="1px"></line><line x1="70" y1="189" x2="65" y2="189" style="visibility: inherit;" fill="rgb(0, 0, 0)" stroke="rgb(204, 204, 204)" stroke-width="1px"></line><line x1="70" y1="141.75" x2="65" y2="141.75" style="visibility: inherit;" fill="rgb(0, 0, 0)" stroke="rgb(204, 204, 204)" stroke-width="1px"></line><line x1="70" y1="94.49999999999994" x2="65" y2="94.49999999999994" style="visibility: inherit;" fill="rgb(0, 0, 0)" stroke="rgb(204, 204, 204)" stroke-width="1px"></line><line x1="70" y1="47.24999999999994" x2="65" y2="47.24999999999994" style="visibility: inherit;" fill="rgb(0, 0, 0)" stroke="rgb(204, 204, 204)" stroke-width="1px"></line><line x1="70" y1="0" x2="65" y2="0" style="visibility: inherit;" fill="rgb(0, 0, 0)" stroke="rgb(204, 204, 204)" stroke-width="1px"></line></g><g transform="translate(60, 0)"><text x="0" y="330.75" dx="0em" dy="0.3em" style="text-anchor: end; visibility: inherit; font-family: &quot;Helvetica Neue&quot;, sans-serif; font-size: 12px; font-weight: 200;" fill="rgb(50, 49, 63)" stroke="none" stroke-width="1px">0.04</text><text x="0" y="283.5" dx="0em" dy="0.3em" style="text-anchor: end; visibility: inherit; font-family: &quot;Helvetica Neue&quot;, sans-serif; font-size: 12px; font-weight: 200;" fill="rgb(50, 49, 63)" stroke="none" stroke-width="1px">0.045</text><text x="0" y="236.24999999999997" dx="0em" dy="0.3em" style="text-anchor: end; visibility: inherit; font-family: &quot;Helvetica Neue&quot;, sans-serif; font-size: 12px; font-weight: 200;" fill="rgb(50, 49, 63)" stroke="none" stroke-width="1px">0.05</text><text x="0" y="189" dx="0em" dy="0.3em" style="text-anchor: end; visibility: inherit; font-family: &quot;Helvetica Neue&quot;, sans-serif; font-size: 12px; font-weight: 200;" fill="rgb(50, 49, 63)" stroke="none" stroke-width="1px">0.055</text><text x="0" y="141.75" dx="0em" dy="0.3em" style="text-anchor: end; visibility: inherit; font-family: &quot;Helvetica Neue&quot;, sans-serif; font-size: 12px; font-weight: 200;" fill="rgb(50, 49, 63)" stroke="none" stroke-width="1px">0.06</text><text x="0" y="94.49999999999994" dx="0em" dy="0.3em" style="text-anchor: end; visibility: inherit; font-family: &quot;Helvetica Neue&quot;, sans-serif; font-size: 12px; font-weight: 200;" fill="rgb(50, 49, 63)" stroke="none" stroke-width="1px">0.065</text><text x="0" y="47.24999999999994" dx="0em" dy="0.3em" style="text-anchor: end; visibility: inherit; font-family: &quot;Helvetica Neue&quot;, sans-serif; font-size: 12px; font-weight: 200;" fill="rgb(50, 49, 63)" stroke="none" stroke-width="1px">0.07</text><text x="0" y="0" dx="0em" dy="0.3em" style="text-anchor: end; visibility: hidden; font-family: &quot;Helvetica Neue&quot;, sans-serif; font-size: 12px; font-weight: 200;" fill="rgb(50, 49, 63)" stroke="none" stroke-width="1px">0.075</text></g><line x1="70" y1="0" x2="70" y2="378" fill="rgb(0, 0, 0)" stroke="rgb(204, 204, 204)" stroke-width="1px"></line></g></g><g transform="translate(70, 0)" clip-path="url(#clip_0)"><clipPath id="clip_0"><rect width="1363" height="378"></rect></clipPath><g><g><g><line x1="0" y1="0" x2="0" y2="378" fill="rgb(0, 0, 0)" stroke="rgb(60, 60, 60)" stroke-width="1px" opacity="0.25"></line><line x1="113.58333333333333" y1="0" x2="113.58333333333333" y2="378" fill="rgb(0, 0, 0)" stroke="rgb(60, 60, 60)" stroke-width="1px" opacity="0.25"></line><line x1="227.16666666666666" y1="0" x2="227.16666666666666" y2="378" fill="rgb(0, 0, 0)" stroke="rgb(60, 60, 60)" stroke-width="1px" opacity="0.25"></line><line x1="340.75" y1="0" x2="340.75" y2="378" fill="rgb(0, 0, 0)" stroke="rgb(60, 60, 60)" stroke-width="1px" opacity="0.25"></line><line x1="454.3333333333333" y1="0" x2="454.3333333333333" y2="378" fill="rgb(0, 0, 0)" stroke="rgb(60, 60, 60)" stroke-width="1px" opacity="0.25"></line><line x1="567.9166666666667" y1="0" x2="567.9166666666667" y2="378" fill="rgb(0, 0, 0)" stroke="rgb(60, 60, 60)" stroke-width="1px" opacity="0.25"></line><line x1="681.5" y1="0" x2="681.5" y2="378" fill="rgb(0, 0, 0)" stroke="rgb(60, 60, 60)" stroke-width="1px" opacity="0.25"></line><line x1="795.0833333333334" y1="0" x2="795.0833333333334" y2="378" fill="rgb(0, 0, 0)" stroke="rgb(60, 60, 60)" stroke-width="1px" opacity="0.25"></line><line x1="908.6666666666666" y1="0" x2="908.6666666666666" y2="378" fill="rgb(0, 0, 0)" stroke="rgb(60, 60, 60)" stroke-width="1px" opacity="0.25"></line><line x1="1022.25" y1="0" x2="1022.25" y2="378" fill="rgb(0, 0, 0)" stroke="rgb(60, 60, 60)" stroke-width="1px" opacity="0.25"></line><line x1="1135.8333333333335" y1="0" x2="1135.8333333333335" y2="378" fill="rgb(0, 0, 0)" stroke="rgb(60, 60, 60)" stroke-width="1px" opacity="0.25"></line><line x1="1249.4166666666665" y1="0" x2="1249.4166666666665" y2="378" fill="rgb(0, 0, 0)" stroke="rgb(60, 60, 60)" stroke-width="1px" opacity="0.25"></line><line x1="1363" y1="0" x2="1363" y2="378" fill="rgb(0, 0, 0)" stroke="rgb(60, 60, 60)" stroke-width="1px" opacity="0.25"></line></g><g><line x1="0" y1="330.75" x2="1363" y2="330.75" fill="rgb(0, 0, 0)" stroke="rgb(60, 60, 60)" stroke-width="1px" opacity="0.25"></line><line x1="0" y1="283.5" x2="1363" y2="283.5" fill="rgb(0, 0, 0)" stroke="rgb(60, 60, 60)" stroke-width="1px" opacity="0.25"></line><line x1="0" y1="236.24999999999997" x2="1363" y2="236.24999999999997" fill="rgb(0, 0, 0)" stroke="rgb(60, 60, 60)" stroke-width="1px" opacity="0.25"></line><line x1="0" y1="189" x2="1363" y2="189" fill="rgb(0, 0, 0)" stroke="rgb(60, 60, 60)" stroke-width="1px" opacity="0.25"></line><line x1="0" y1="141.75" x2="1363" y2="141.75" fill="rgb(0, 0, 0)" stroke="rgb(60, 60, 60)" stroke-width="1px" opacity="0.25"></line><line x1="0" y1="94.49999999999994" x2="1363" y2="94.49999999999994" fill="rgb(0, 0, 0)" stroke="rgb(60, 60, 60)" stroke-width="1px" opacity="0.25"></line><line x1="0" y1="47.24999999999994" x2="1363" y2="47.24999999999994" fill="rgb(0, 0, 0)" stroke="rgb(60, 60, 60)" stroke-width="1px" opacity="0.25"></line><line x1="0" y1="0" x2="1363" y2="0" fill="rgb(0, 0, 0)" stroke="rgb(60, 60, 60)" stroke-width="1px" opacity="0.25"></line></g></g></g><g><g><line x1="0" y1="708.75" x2="1363" y2="708.75" fill="rgb(0, 0, 0)" stroke="rgb(153, 153, 153)" stroke-width="1.5px"></line></g></g><g><g><line x1="113.58333333333333" y1="0" x2="113.58333333333333" y2="378" fill="rgb(0, 0, 0)" stroke="rgb(153, 153, 153)" stroke-width="1.5px"></line></g></g><g><g><g><g><g><path stroke="rgb(255, 112, 67)" stroke-width="2px" d="M113.58333333333333,180.3667163103819L119.26249999999999,151.80803174706685L124.94166666666666,107.93159486960855L130.62083333333334,116.04821483295143L136.3,109.66161760008782L141.97916666666669,108.94674271763859L147.65833333333333,102.04060655166143L153.3375,100.86502460821225L159.01666666666668,118.94339327888929L164.69583333333333,130.12816681432494L170.375,127.72006687553645L176.05416666666667,140.617141929741L181.73333333333332,151.96589421069123L187.41250000000002,157.60255381777273L193.09166666666667,154.5117542165635L198.77083333333334,158.17968815028942L204.45,157.02144071753222L210.12916666666666,168.2967147620091L215.80833333333334,178.5910327377387L221.4875,179.91277236178243L227.16666666666666,180.98622713884677L232.84583333333333,181.94577531182475L238.52499999999998,182.7163895804914L244.20416666666668,185.3842201244566L249.88333333333333,191.73217910383124L255.5625,192.4732706875645L261.2416666666667,195.41372937258035L266.92083333333335,200.4942737164276L272.6,203.88973642635216L278.27916666666664,203.84873259623902L283.95833333333337,198.83332493516025L289.6375,198.57760779045074L295.31666666666666,201.58923811400544L300.99583333333334,204.2394446936824L306.675,207.7933542158732L312.35416666666663,209.035359354452L318.03333333333336,211.38518006961488L323.7125,210.69336712676082L329.39166666666665,214.09084787801834L335.0708333333333,218.36083280835965L340.75,216.485622615978L346.4291666666667,220.61306898765875L352.10833333333335,221.689900787641L357.7875,223.24283122952033L363.46666666666664,225.42560982994814L369.1458333333333,226.96311012867747L374.82500000000005,228.187223775253L380.50416666666666,227.5322978879688L386.18333333333334,228.35491391961773L391.86249999999995,229.237555600004L397.5416666666667,229.39435693827937L403.22083333333336,229.19905704242646L408.9,229.01625160405123L414.57916666666665,228.4344057862856L420.2583333333333,231.441089499233L425.9375,233.08868126174636L431.6166666666667,235.20012962086741L437.29583333333335,237.01212569154808L442.975,240.44676063120477L448.65416666666664,241.66044210294095L454.3333333333333,242.2068575523989L460.01250000000005,243.49016301729037L465.69166666666666,242.8821846494822L471.37083333333334,243.79844737103187L477.04999999999995,246.09521427473638L482.7291666666667,247.68871514131612L488.40833333333336,247.5564930894685L494.0875,248.593743385983L499.76666666666665,251.4157131896381L505.4458333333333,252.23350033904458L511.125,252.14470350997328L516.8041666666667,252.07598287680892L522.4833333333333,250.8299213360273L528.1625,252.86602536628607L533.8416666666667,254.7845056171296L539.5208333333333,256.6233992473078L545.2,257.930002453539L550.8791666666667,259.9969052055765L556.5583333333333,260.39145257006214L562.2375,260.24987221705817L567.9166666666667,262.5560203859934L573.5958333333333,261.73590245455813L579.275,263.3889902492863L584.9541666666667,262.5582264481145L590.6333333333333,262.2488765076316L596.3125,262.5217192757247L601.9916666666667,263.54533869624606L607.6708333333333,263.9127277966827L613.35,265.31012669875656L619.0291666666667,266.4192017577569L624.7083333333333,267.1762380536891L630.3875,269.16350777504533L636.0666666666667,270.7796584698167L641.7458333333333,272.0858798770046L647.425,272.9865776055171L653.1041666666667,272.93870727273037L658.7833333333333,273.88977359774333L664.4625,274.654640811375L670.1416666666667,275.2676063514387L675.8208333333333,275.59413905453493L681.5,275.65297265984424L687.1791666666667,276.85591373002813L692.8583333333333,277.61551852634074L698.5374999999999,277.6204819138119L704.2166666666667,277.99540143294496L709.8958333333334,278.16555915100446L715.575,279.54486257674944L721.2541666666667,279.4733586991249L726.9333333333333,279.7127780017755L732.6125,280.1563905724663L738.2916666666666,280.6216030923446L743.9708333333333,279.6238285496562L749.6500000000001,279.5510032736318L755.3291666666667,280.0097826370959L761.0083333333333,280.28070586796855L766.6875,280.04462537310076L772.3666666666667,279.02567202420556L778.0458333333333,279.478355721361L783.7249999999999,279.8343006397276L789.4041666666667,280.02302437080397L795.0833333333334,280.32787283932225L800.7625,280.8578907040554L806.4416666666667,281.6316982381185L812.1208333333333,281.8008138718229L817.8,282.5785034639925L823.4791666666666,282.77497747080884L829.1583333333333,283.09299066536084L834.8375000000001,283.73093422007446L840.5166666666667,281.8794602209988L846.1958333333333,281.7492986213868L851.875,283.15942466601854L857.5541666666667,283.58302018223935L863.2333333333333,284.40267810927725L868.9124999999999,284.6528656002705L874.5916666666667,284.5292711978896L880.2708333333334,284.9590870901811L885.95,285.5788290148458L891.6291666666667,285.7349465563327L897.3083333333333,286.6345946963555L902.9875,287.61822729413404L908.6666666666666,287.23774039797615L914.3458333333333,287.473934934798L920.0250000000001,288.32815141205015L925.7041666666667,288.87848541341566L931.3833333333333,289.5254011190733L937.0625,290.5601937872073L942.7416666666667,290.6753591686746L948.4208333333333,291.72917927813285L954.0999999999999,291.20282866556335L959.7791666666667,290.9719344527482L965.4583333333334,291.2281060629733L971.1375,290.8718071185161L976.8166666666667,291.17454233212607L982.4958333333333,291.6972311532086L988.175,292.12612999037333L993.8541666666666,291.25553771242033L999.5333333333333,291.7235717641849L1005.2125000000001,292.25678346773606L1010.8916666666667,292.3732104750796L1016.5708333333333,292.727549080952L1022.25,293.1437674892867L1027.9291666666666,293.5157533522534L1033.6083333333333,294.7078438201435L1039.2875,294.945597264752L1044.9666666666667,294.75896377392377L1050.6458333333335,295.54967766963813L1056.325,296.54397159772145L1062.0041666666666,296.9756951229167L1067.6833333333334,296.9797010375837L1073.3625,297.08438577876086L1079.0416666666665,297.785571089932L1084.7208333333333,298.3486323625548L1090.4,299.0885778824061L1096.0791666666667,298.9474753176174L1101.7583333333334,299.4307080251432L1107.4375,299.84437049329705L1113.1166666666666,299.63058737357846L1118.7958333333333,300.19855587784446L1124.475,300.9141589511847L1130.1541666666667,301.5602072422747L1135.8333333333335,301.7662676835977L1141.5125,300.9293894772692L1147.1916666666666,300.87441767615184L1152.8708333333334,300.7783610913151L1158.55,300.80703201971056L1164.2291666666665,301.57450513670676L1169.9083333333333,301.3441146280047L1175.5875,301.6746503687781L1181.2666666666667,301.8506517317136L1186.9458333333334,301.71131954668596L1192.625,302.18394915015836L1198.3041666666666,302.6982214587482L1203.9833333333333,303.2911729945927L1209.6625,303.7484937909613L1215.3416666666667,305.07825944254927L1221.0208333333335,305.394194142371L1226.7,306.0725762529512L1232.3791666666666,306.12069098971756L1238.0583333333334,306.58506385125247" style="fill: none;" fill="none"></path></g></g></g></g><g opacity="0.2"><g><g><g><path stroke="rgb(255, 112, 67)" stroke-width="2px" d="M113.58333333333333,180.3667163103819L119.26249999999999,123.30646455287933L124.94166666666666,20.44180423021311L130.62083333333334,140.30080508440733L136.3,84.24270540475845L141.97916666666669,105.39375744760036L147.65833333333333,60.892882347106934L153.3375,92.7015209197998L159.01666666666668,262.2747562453151L164.69583333333333,229.78984896093607L170.375,103.90237547457218L176.05416666666667,280.79385213553905L181.73333333333332,286.39343451708555L187.41250000000002,229.86141867935658L193.09166666666667,111.88403606414795L198.77083333333334,212.32655603438616L204.45,138.80139660090208L210.12916666666666,356.56266767531633L215.80833333333334,360.40768302977085L221.4875,204.52954038977623L227.16666666666666,202.01013140380383L232.84583333333333,201.6588307544589L238.52499999999998,199.28537752479315L244.20416666666668,245.29305394738915L249.88333333333333,340.3321833908558L255.5625,210.52647024393082L261.2416666666667,269.8354474827647L266.92083333333335,333.8938306644559L272.6,296.2545659020543L278.27916666666664,202.69463784992695L283.95833333333337,52.94649615883827L289.6375,190.89904703199863L295.31666666666666,294.8458781093359L300.99583333333334,288.78519382327795L306.675,324.4886966049671L312.35416666666663,250.975506529212L318.03333333333336,292.92057171463966L323.7125,186.04603573679924L329.39166666666665,338.2820436358452L335.0708333333333,378.3947409689427L340.75,144.47409767657518L346.4291666666667,382.9167995229364L352.10833333333335,265.0241881236434L357.7875,287.16130401939154L363.46666666666664,317.2673014551401L369.1458333333333,293.05938106030226L374.82500000000005,281.92759674042463L380.50416666666666,198.18398538976908L386.18333333333334,265.9649444371462L391.86249999999995,270.39212822914124L397.5416666666667,236.847334317863L403.22083333333336,219.73984815180302L408.9,219.99747097492218L414.57916666666665,199.20553486794233L420.2583333333333,385.17964180558926L425.9375,318.8095884025097L431.6166666666667,346.9420851767063L437.29583333333335,334.5230668410659L442.975,428.3366572670639L448.65416666666664,309.13271471858025L454.3333333333333,273.068335801363L460.01250000000005,317.10687685757875L465.69166666666666,207.46854577213526L471.37083333333334,297.9767804592848L477.04999999999995,383.922894448042L482.7291666666667,344.7128627076745L488.40833333333336,239.3899779394269L494.0875,313.56514390558004L499.76666666666665,430.64137469977146L505.4458333333333,304.8841207846999L511.125,246.35061711072925L516.8041666666667,247.53227435052398L522.4833333333333,167.36334688961506L528.1625,391.01230982691055L539.5208333333333,384.5574816316367L545.2,349.9541740491986L550.8791666666667,407.340661212802L556.5583333333333,288.8551441580057L562.2375,249.91502143442634L567.9166666666667,432.86130331456667L573.5958333333333,200.47418117523193L579.275,388.27526975423103L584.9541666666667,199.09270606935024L590.6333333333333,238.35487492382526L596.3125,283.8260776922107L601.9916666666667,344.3342437595129L607.6708333333333,293.21748219430447L613.35,377.94518597424036L619.0291666666667,356.74245446920395L624.7083333333333,329.461612701416L630.3875,434.3229731172324L641.7458333333333,382.8150951862336L647.425,350.08548494428396L653.1041666666667,268.80147099494934L658.7833333333333,356.87130108475685L664.4625,342.01996844261885L670.1416666666667,329.75803032517433L675.8208333333333,304.88954219967127L681.5,280.97948279231787L687.1791666666667,386.74709960818296L692.8583333333333,347.6263099908829L698.5374999999999,278.08198291808367L704.2166666666667,313.1602627784014L709.8958333333334,294.2630759999156L715.575,411.14737462252384L721.2541666666667,272.59329311549664L726.9333333333333,302.94244453310966L732.6125,323.5545586422086L738.2916666666666,326.506131850183L743.9708333333333,180.41304476559162L749.6500000000001,272.2516383603215L755.3291666666667,326.3596832379699L761.0083333333333,307.86737758666277L766.6875,255.81827346235514L772.3666666666667,173.65387804806232L778.0458333333333,326.64934169501066L783.7249999999999,317.2058704867959L789.4041666666667,299.9863300099969L795.0833333333334,312.81466517597437L800.7625,337.75630719959736L806.4416666666667,365.30751563608646L812.1208333333333,300.22036615759134L817.8,367.888778038323L823.4791666666666,304.4805774092674L829.1583333333333,318.4728270024061L834.8375000000001,355.1986185461283L840.5166666666667,73.02917741239071L846.1958333333333,266.9662516191602L851.875,444.4008730910719L857.5541666666667,332.34510138630867L863.2333333333333,379.38668388873344L868.9124999999999,313.83691873401403L874.5916666666667,270.0176281481981L880.2708333333334,335.75327038764954L885.95,359.2898506298661L891.6291666666667,304.42196276038885L897.3083333333333,395.00349216163164L902.9875,406.8483333662153L908.6666666666666,240.8298916742206L914.3458333333333,316.46060194820166L920.0250000000001,393.8035992532969L925.7041666666667,357.2449914738536L931.3833333333333,370.3748840466142L937.0625,420.65938800573355L942.7416666666667,305.240490809083L948.4208333333333,425.79248227179056L954.0999999999999,223.85097049176693L959.7791666666667,261.25535421073437L965.4583333333334,324.3876611441374L971.1375,244.48814984411004L976.8166666666667,330.8084822818637L982.4958333333333,360.512168481946L988.175,348.90819299966097L993.8541666666666,175.35919468849897L999.5333333333333,354.3724160268903L1005.2125000000001,364.01940152049065L1010.8916666666667,308.12746468931437L1016.5708333333333,340.9324114769697L1022.25,350.06900947541L1027.9291666666666,344.6609016135335L1033.6083333333333,459.4728643633426L1039.2875,327.9782924428582L1044.9666666666667,268.69431003928185L1050.6458333333335,406.5465999394656L1056.325,436.8317152932287L1062.0041666666666,358.1978227570653L1067.6833333333334,297.55063612014055L1073.3625,312.0790073275566L1079.0416666666665,398.71944967657333L1090.4,406.6517190635205L1096.0791666666667,278.3361205458641L1101.7583333333334,370.3593238815666L1107.4375,360.8529079332948L1113.1166666666666,267.950731292367L1118.7958333333333,384.7625448927284L1130.1541666666667,398.65323096513754L1135.8333333333335,332.87830106914043L1141.5125,173.99085067212582L1147.1916666666666,292.49805338680744L1152.8708333333334,286.0750848054886L1158.55,305.21549597382545L1164.2291666666665,420.11168427765375L1169.9083333333333,265.60125198215246L1175.5875,353.1813945248723L1181.2666666666667,329.3974006175995L1186.9458333333334,279.8083867505193L1192.625,376.8041189387441L1198.3041666666666,384.2439196631313L1203.9833333333333,397.7163822948933L1209.6625,376.8857922032476L1215.3416666666667,518.643595520407L1221.0208333333335,356.348310559988L1226.7,415.9406095370651L1232.3791666666666,313.9455934613943L1238.0583333333334,382.4184517934919" style="fill: none;" fill="none"></path></g></g></g></g></g><g><g opacity="0.0508623"><span style="white-space: normal;" fill="rgb(0, 0, 0)" stroke="none" stroke-width="1px">Alt + Scroll to Zoom</span></g></g></g><g transform="translate(70, 378)" clip-path="url(#clip_1)"><clipPath id="clip_1"><rect width="1363" height="22"></rect></clipPath><g><g><line x1="0" y1="0" x2="0" y2="5" style="visibility: inherit;" fill="rgb(0, 0, 0)" stroke="rgb(204, 204, 204)" stroke-width="1px"></line><line x1="113.58333333333333" y1="0" x2="113.58333333333333" y2="5" style="visibility: inherit;" fill="rgb(0, 0, 0)" stroke="rgb(204, 204, 204)" stroke-width="1px"></line><line x1="227.16666666666666" y1="0" x2="227.16666666666666" y2="5" style="visibility: inherit;" fill="rgb(0, 0, 0)" stroke="rgb(204, 204, 204)" stroke-width="1px"></line><line x1="340.75" y1="0" x2="340.75" y2="5" style="visibility: inherit;" fill="rgb(0, 0, 0)" stroke="rgb(204, 204, 204)" stroke-width="1px"></line><line x1="454.3333333333333" y1="0" x2="454.3333333333333" y2="5" style="visibility: inherit;" fill="rgb(0, 0, 0)" stroke="rgb(204, 204, 204)" stroke-width="1px"></line><line x1="567.9166666666667" y1="0" x2="567.9166666666667" y2="5" style="visibility: inherit;" fill="rgb(0, 0, 0)" stroke="rgb(204, 204, 204)" stroke-width="1px"></line><line x1="681.5" y1="0" x2="681.5" y2="5" style="visibility: inherit;" fill="rgb(0, 0, 0)" stroke="rgb(204, 204, 204)" stroke-width="1px"></line><line x1="795.0833333333334" y1="0" x2="795.0833333333334" y2="5" style="visibility: inherit;" fill="rgb(0, 0, 0)" stroke="rgb(204, 204, 204)" stroke-width="1px"></line><line x1="908.6666666666666" y1="0" x2="908.6666666666666" y2="5" style="visibility: inherit;" fill="rgb(0, 0, 0)" stroke="rgb(204, 204, 204)" stroke-width="1px"></line><line x1="1022.25" y1="0" x2="1022.25" y2="5" style="visibility: inherit;" fill="rgb(0, 0, 0)" stroke="rgb(204, 204, 204)" stroke-width="1px"></line><line x1="1135.8333333333335" y1="0" x2="1135.8333333333335" y2="5" style="visibility: inherit;" fill="rgb(0, 0, 0)" stroke="rgb(204, 204, 204)" stroke-width="1px"></line><line x1="1249.4166666666665" y1="0" x2="1249.4166666666665" y2="5" style="visibility: inherit;" fill="rgb(0, 0, 0)" stroke="rgb(204, 204, 204)" stroke-width="1px"></line><line x1="1363" y1="0" x2="1363" y2="5" style="visibility: inherit;" fill="rgb(0, 0, 0)" stroke="rgb(204, 204, 204)" stroke-width="1px"></line></g><g transform="translate(0, 8)"><text x="0" y="0" dx="0em" dy="0.95em" style="text-anchor: middle; visibility: hidden; font-family: &quot;Helvetica Neue&quot;, sans-serif; font-size: 12px; font-weight: 200;" fill="rgb(50, 49, 63)" stroke="none" stroke-width="1px">-20</text><text x="113.58333333333333" y="0" dx="0em" dy="0.95em" style="text-anchor: middle; visibility: inherit; font-family: &quot;Helvetica Neue&quot;, sans-serif; font-size: 12px; font-weight: 200;" fill="rgb(50, 49, 63)" stroke="none" stroke-width="1px">0</text><text x="227.16666666666666" y="0" dx="0em" dy="0.95em" style="text-anchor: middle; visibility: inherit; font-family: &quot;Helvetica Neue&quot;, sans-serif; font-size: 12px; font-weight: 200;" fill="rgb(50, 49, 63)" stroke="none" stroke-width="1px">20</text><text x="340.75" y="0" dx="0em" dy="0.95em" style="text-anchor: middle; visibility: inherit; font-family: &quot;Helvetica Neue&quot;, sans-serif; font-size: 12px; font-weight: 200;" fill="rgb(50, 49, 63)" stroke="none" stroke-width="1px">40</text><text x="454.3333333333333" y="0" dx="0em" dy="0.95em" style="text-anchor: middle; visibility: inherit; font-family: &quot;Helvetica Neue&quot;, sans-serif; font-size: 12px; font-weight: 200;" fill="rgb(50, 49, 63)" stroke="none" stroke-width="1px">60</text><text x="567.9166666666667" y="0" dx="0em" dy="0.95em" style="text-anchor: middle; visibility: inherit; font-family: &quot;Helvetica Neue&quot;, sans-serif; font-size: 12px; font-weight: 200;" fill="rgb(50, 49, 63)" stroke="none" stroke-width="1px">80</text><text x="681.5" y="0" dx="0em" dy="0.95em" style="text-anchor: middle; visibility: inherit; font-family: &quot;Helvetica Neue&quot;, sans-serif; font-size: 12px; font-weight: 200;" fill="rgb(50, 49, 63)" stroke="none" stroke-width="1px">100</text><text x="795.0833333333334" y="0" dx="0em" dy="0.95em" style="text-anchor: middle; visibility: inherit; font-family: &quot;Helvetica Neue&quot;, sans-serif; font-size: 12px; font-weight: 200;" fill="rgb(50, 49, 63)" stroke="none" stroke-width="1px">120</text><text x="908.6666666666666" y="0" dx="0em" dy="0.95em" style="text-anchor: middle; visibility: inherit; font-family: &quot;Helvetica Neue&quot;, sans-serif; font-size: 12px; font-weight: 200;" fill="rgb(50, 49, 63)" stroke="none" stroke-width="1px">140</text><text x="1022.25" y="0" dx="0em" dy="0.95em" style="text-anchor: middle; visibility: inherit; font-family: &quot;Helvetica Neue&quot;, sans-serif; font-size: 12px; font-weight: 200;" fill="rgb(50, 49, 63)" stroke="none" stroke-width="1px">160</text><text x="1135.8333333333335" y="0" dx="0em" dy="0.95em" style="text-anchor: middle; visibility: inherit; font-family: &quot;Helvetica Neue&quot;, sans-serif; font-size: 12px; font-weight: 200;" fill="rgb(50, 49, 63)" stroke="none" stroke-width="1px">180</text><text x="1249.4166666666665" y="0" dx="0em" dy="0.95em" style="text-anchor: middle; visibility: inherit; font-family: &quot;Helvetica Neue&quot;, sans-serif; font-size: 12px; font-weight: 200;" fill="rgb(50, 49, 63)" stroke="none" stroke-width="1px">200</text><text x="1363" y="0" dx="0em" dy="0.95em" style="text-anchor: middle; visibility: hidden; font-family: &quot;Helvetica Neue&quot;, sans-serif; font-size: 12px; font-weight: 200;" fill="rgb(50, 49, 63)" stroke="none" stroke-width="1px">220</text></g><line x1="0" y1="0" x2="1363" y2="0" fill="rgb(0, 0, 0)" stroke="rgb(204, 204, 204)" stroke-width="1px"></line></g></g></g></g></svg>