<svg viewBox="0 0 1433 400" xmlns="http://www.w3.org/2000/svg"><g><g><g><g><g><line x1="70" y1="378" x2="65" y2="378" style="visibility: inherit;" fill="rgb(0, 0, 0)" stroke="rgb(204, 204, 204)" stroke-width="1px"></line><line x1="70" y1="330.75" x2="65" y2="330.75" style="visibility: inherit;" fill="rgb(0, 0, 0)" stroke="rgb(204, 204, 204)" stroke-width="1px"></line><line x1="70" y1="283.5" x2="65" y2="283.5" style="visibility: inherit;" fill="rgb(0, 0, 0)" stroke="rgb(204, 204, 204)" stroke-width="1px"></line><line x1="70" y1="236.25" x2="65" y2="236.25" style="visibility: inherit;" fill="rgb(0, 0, 0)" stroke="rgb(204, 204, 204)" stroke-width="1px"></line><line x1="70" y1="189.00000000000003" x2="65" y2="189.00000000000003" style="visibility: inherit;" fill="rgb(0, 0, 0)" stroke="rgb(204, 204, 204)" stroke-width="1px"></line><line x1="70" y1="141.75" x2="65" y2="141.75" style="visibility: inherit;" fill="rgb(0, 0, 0)" stroke="rgb(204, 204, 204)" stroke-width="1px"></line><line x1="70" y1="94.5" x2="65" y2="94.5" style="visibility: inherit;" fill="rgb(0, 0, 0)" stroke="rgb(204, 204, 204)" stroke-width="1px"></line><line x1="70" y1="47.25000000000006" x2="65" y2="47.25000000000006" style="visibility: inherit;" fill="rgb(0, 0, 0)" stroke="rgb(204, 204, 204)" stroke-width="1px"></line><line x1="70" y1="0" x2="65" y2="0" style="visibility: inherit;" fill="rgb(0, 0, 0)" stroke="rgb(204, 204, 204)" stroke-width="1px"></line></g><g transform="translate(60, 0)"><text x="0" y="378" dx="0em" dy="0.3em" style="text-anchor: end; visibility: hidden; font-family: &quot;Helvetica Neue&quot;, sans-serif; font-size: 12px; font-weight: 200;" fill="rgb(50, 49, 63)" stroke="none" stroke-width="1px">0.025</text><text x="0" y="330.75" dx="0em" dy="0.3em" style="text-anchor: end; visibility: inherit; font-family: &quot;Helvetica Neue&quot;, sans-serif; font-size: 12px; font-weight: 200;" fill="rgb(50, 49, 63)" stroke="none" stroke-width="1px">0.03</text><text x="0" y="283.5" dx="0em" dy="0.3em" style="text-anchor: end; visibility: inherit; font-family: &quot;Helvetica Neue&quot;, sans-serif; font-size: 12px; font-weight: 200;" fill="rgb(50, 49, 63)" stroke="none" stroke-width="1px">0.035</text><text x="0" y="236.25" dx="0em" dy="0.3em" style="text-anchor: end; visibility: inherit; font-family: &quot;Helvetica Neue&quot;, sans-serif; font-size: 12px; font-weight: 200;" fill="rgb(50, 49, 63)" stroke="none" stroke-width="1px">0.04</text><text x="0" y="189.00000000000003" dx="0em" dy="0.3em" style="text-anchor: end; visibility: inherit; font-family: &quot;Helvetica Neue&quot;, sans-serif; font-size: 12px; font-weight: 200;" fill="rgb(50, 49, 63)" stroke="none" stroke-width="1px">0.045</text><text x="0" y="141.75" dx="0em" dy="0.3em" style="text-anchor: end; visibility: inherit; font-family: &quot;Helvetica Neue&quot;, sans-serif; font-size: 12px; font-weight: 200;" fill="rgb(50, 49, 63)" stroke="none" stroke-width="1px">0.05</text><text x="0" y="94.5" dx="0em" dy="0.3em" style="text-anchor: end; visibility: inherit; font-family: &quot;Helvetica Neue&quot;, sans-serif; font-size: 12px; font-weight: 200;" fill="rgb(50, 49, 63)" stroke="none" stroke-width="1px">0.055</text><text x="0" y="47.25000000000006" dx="0em" dy="0.3em" style="text-anchor: end; visibility: inherit; font-family: &quot;Helvetica Neue&quot;, sans-serif; font-size: 12px; font-weight: 200;" fill="rgb(50, 49, 63)" stroke="none" stroke-width="1px">0.06</text><text x="0" y="0" dx="0em" dy="0.3em" style="text-anchor: end; visibility: hidden; font-family: &quot;Helvetica Neue&quot;, sans-serif; font-size: 12px; font-weight: 200;" fill="rgb(50, 49, 63)" stroke="none" stroke-width="1px">0.065</text></g><line x1="70" y1="0" x2="70" y2="378" fill="rgb(0, 0, 0)" stroke="rgb(204, 204, 204)" stroke-width="1px"></line></g></g><g transform="translate(70, 0)" clip-path="url(#clip_0)"><clipPath id="clip_0"><rect width="1363" height="378"></rect></clipPath><g><g><g><line x1="0" y1="0" x2="0" y2="378" fill="rgb(0, 0, 0)" stroke="rgb(60, 60, 60)" stroke-width="1px" opacity="0.25"></line><line x1="113.58333333333333" y1="0" x2="113.58333333333333" y2="378" fill="rgb(0, 0, 0)" stroke="rgb(60, 60, 60)" stroke-width="1px" opacity="0.25"></line><line x1="227.16666666666666" y1="0" x2="227.16666666666666" y2="378" fill="rgb(0, 0, 0)" stroke="rgb(60, 60, 60)" stroke-width="1px" opacity="0.25"></line><line x1="340.75" y1="0" x2="340.75" y2="378" fill="rgb(0, 0, 0)" stroke="rgb(60, 60, 60)" stroke-width="1px" opacity="0.25"></line><line x1="454.3333333333333" y1="0" x2="454.3333333333333" y2="378" fill="rgb(0, 0, 0)" stroke="rgb(60, 60, 60)" stroke-width="1px" opacity="0.25"></line><line x1="567.9166666666667" y1="0" x2="567.9166666666667" y2="378" fill="rgb(0, 0, 0)" stroke="rgb(60, 60, 60)" stroke-width="1px" opacity="0.25"></line><line x1="681.5" y1="0" x2="681.5" y2="378" fill="rgb(0, 0, 0)" stroke="rgb(60, 60, 60)" stroke-width="1px" opacity="0.25"></line><line x1="795.0833333333334" y1="0" x2="795.0833333333334" y2="378" fill="rgb(0, 0, 0)" stroke="rgb(60, 60, 60)" stroke-width="1px" opacity="0.25"></line><line x1="908.6666666666666" y1="0" x2="908.6666666666666" y2="378" fill="rgb(0, 0, 0)" stroke="rgb(60, 60, 60)" stroke-width="1px" opacity="0.25"></line><line x1="1022.25" y1="0" x2="1022.25" y2="378" fill="rgb(0, 0, 0)" stroke="rgb(60, 60, 60)" stroke-width="1px" opacity="0.25"></line><line x1="1135.8333333333335" y1="0" x2="1135.8333333333335" y2="378" fill="rgb(0, 0, 0)" stroke="rgb(60, 60, 60)" stroke-width="1px" opacity="0.25"></line><line x1="1249.4166666666665" y1="0" x2="1249.4166666666665" y2="378" fill="rgb(0, 0, 0)" stroke="rgb(60, 60, 60)" stroke-width="1px" opacity="0.25"></line><line x1="1363" y1="0" x2="1363" y2="378" fill="rgb(0, 0, 0)" stroke="rgb(60, 60, 60)" stroke-width="1px" opacity="0.25"></line></g><g><line x1="0" y1="378" x2="1363" y2="378" fill="rgb(0, 0, 0)" stroke="rgb(60, 60, 60)" stroke-width="1px" opacity="0.25"></line><line x1="0" y1="330.75" x2="1363" y2="330.75" fill="rgb(0, 0, 0)" stroke="rgb(60, 60, 60)" stroke-width="1px" opacity="0.25"></line><line x1="0" y1="283.5" x2="1363" y2="283.5" fill="rgb(0, 0, 0)" stroke="rgb(60, 60, 60)" stroke-width="1px" opacity="0.25"></line><line x1="0" y1="236.25" x2="1363" y2="236.25" fill="rgb(0, 0, 0)" stroke="rgb(60, 60, 60)" stroke-width="1px" opacity="0.25"></line><line x1="0" y1="189.00000000000003" x2="1363" y2="189.00000000000003" fill="rgb(0, 0, 0)" stroke="rgb(60, 60, 60)" stroke-width="1px" opacity="0.25"></line><line x1="0" y1="141.75" x2="1363" y2="141.75" fill="rgb(0, 0, 0)" stroke="rgb(60, 60, 60)" stroke-width="1px" opacity="0.25"></line><line x1="0" y1="94.5" x2="1363" y2="94.5" fill="rgb(0, 0, 0)" stroke="rgb(60, 60, 60)" stroke-width="1px" opacity="0.25"></line><line x1="0" y1="47.25000000000006" x2="1363" y2="47.25000000000006" fill="rgb(0, 0, 0)" stroke="rgb(60, 60, 60)" stroke-width="1px" opacity="0.25"></line><line x1="0" y1="0" x2="1363" y2="0" fill="rgb(0, 0, 0)" stroke="rgb(60, 60, 60)" stroke-width="1px" opacity="0.25"></line></g></g></g><g><g><line x1="0" y1="614.25" x2="1363" y2="614.25" fill="rgb(0, 0, 0)" stroke="rgb(153, 153, 153)" stroke-width="1.5px"></line></g></g><g><g><line x1="113.58333333333333" y1="0" x2="113.58333333333333" y2="378" fill="rgb(0, 0, 0)" stroke="rgb(153, 153, 153)" stroke-width="1.5px"></line></g></g><g><g><g><g><g><path stroke="rgb(255, 112, 67)" stroke-width="2px" d="M113.58333333333333,138.5078811943531L119.26249999999999,104.31696295093798L124.94166666666666,57.76126928650524L130.62083333333334,64.69570102922876L136.3,57.734401004633526L141.97916666666669,56.85445355648562L147.65833333333333,49.947265787047456L153.3375,48.945859919864745L159.01666666666668,67.28180741821109L164.69583333333333,78.8348077754888L170.375,76.87923721151691L176.05416666666667,90.26807099088637L181.73333333333332,102.19173302024001L187.41250000000002,108.38747757868248L193.09166666666667,105.8594884179866L198.77083333333334,110.12548925521696L204.45,109.52868240402091L210.12916666666666,121.34159429450267L215.80833333333334,132.17454408213408L221.4875,134.03277354751086L227.16666666666666,135.6313220642756L232.84583333333333,137.10166544855963L238.52499999999998,138.3662810783741L244.20416666666668,141.52235484220353L249.88333333333333,148.3401736720954L255.5625,149.54708142773245L261.2416666666667,152.94017404153556L266.92083333333335,158.46076040980674L272.6,162.29067275933014L278.27916666666664,162.66444904968577L283.95833333333337,158.05984853878792L289.6375,158.2099888789103L295.31666666666666,161.61923000514633L300.99583333333334,164.6650295215035L306.675,168.6012550834693L312.35416666666663,170.20727756183308L318.03333333333336,172.9191586718566L323.7125,172.5833643830561L329.39166666666665,176.32677407461458L335.0708333333333,180.93201408385633L340.75,179.3876385384907L346.4291666666667,183.83206669298107L352.10833333333335,185.21529268550864L357.7875,187.07283800406992L363.46666666666664,189.5579471605777L369.1458333333333,191.39396701946959L374.82500000000005,192.90077040618627L380.50416666666666,192.52613594514636L386.18333333333334,193.61708117760062L391.86249999999995,194.77364161114994L397.5416666666667,195.19688975065012L403.22083333333336,195.2755064983058L408.9,195.35193026995665L414.57916666666665,195.01940828622344L420.2583333333333,198.2722124262452L425.9375,200.16403417182204L431.6166666666667,202.52455852979386L437.29583333333335,204.5741316038308L442.975,208.23751018560762L448.65416666666664,209.68149203794206L454.3333333333333,210.4532786160911L460.01250000000005,211.95668484597746L465.69166666666666,211.56943261956002L471.37083333333334,212.70433026626523L477.04999999999995,215.2150947397542L482.7291666666667,217.01607521810573L488.40833333333336,217.08900236339335L494.0875,218.32750608033243L499.76666666666665,221.34942782326485L505.4458333333333,222.36206156001114L511.125,222.46200487770682L516.8041666666667,222.5755854310356L522.4833333333333,221.51874181857625L528.1625,223.7387689990728L533.8416666666667,225.83830596129425L539.5208333333333,227.85707699088226L545.2,229.34504206204193L550.8791666666667,231.58738254607275L556.5583333333333,232.1573137646234L562.2375,232.18659424450277L567.9166666666667,234.65977252381293L573.5958333333333,234.0034121090437L579.275,235.82748537354414L584.9541666666667,235.15533700144022L590.6333333333333,235.00434790605357L596.3125,235.43614230220595L601.9916666666667,236.61698048775546L607.6708333333333,237.14428472421235L613.35,238.69432861687804L619.0291666666667,239.96358016238327L624.7083333333333,240.8737060036493L630.3875,243.0114721169413L636.0666666666667,244.77319948778248L641.7458333333333,246.2246374207361L647.425,247.26871852976672L653.1041666666667,247.36756371773384L658.7833333333333,248.4655061419107L664.4625,249.36772865916382L670.1416666666667,250.1280470905523L675.8208333333333,250.5962751470658L681.5,250.79262521095276L687.1791666666667,252.12938995851908L692.8583333333333,253.02094496764528L698.5374999999999,253.1571860330763L704.2166666666667,253.66421392982102L709.8958333333334,253.96034280441063L715.575,255.47177750393817L721.2541666666667,255.5264580372717L726.9333333333333,255.89088709510682L732.6125,256.4586445952196L738.2916666666666,257.04556579700187L743.9708333333333,256.17076512881295L749.6500000000001,256.2162392624803L755.3291666666667,256.7931477788454L761.0083333333333,257.1801084945788L766.6875,257.0599970461697L772.3666666666667,256.1555795504386L778.0458333333333,256.72373653949546L783.7249999999999,257.19306790935957L789.4041666666667,257.4948579968229L795.0833333333334,257.9094187142137L800.7625,258.5495798184894L806.4416666666667,259.43243435425535L812.1208333333333,259.711088603681L817.8,260.5988292841416L823.4791666666666,260.89771531137444L829.1583333333333,261.3186192211393L834.8375000000001,262.0599073727269L840.5166666666667,260.31341468487494L846.1958333333333,260.28476961749277L851.875,261.80160417604156L857.5541666666667,262.32697025557115L863.2333333333333,263.2515510399942L868.9124999999999,263.60147644675476L874.5916666666667,263.5755452254564L880.2708333333334,264.1042819637613L885.95,264.82042191841L891.6291666666667,265.0758143123171L897.3083333333333,266.0683960978348L902.9875,267.1430239066043L908.6666666666666,266.85612928622066L914.3458333333333,267.17943852633084L920.0250000000001,268.1235730416357L925.7041666666667,268.7619477494624L931.3833333333333,269.4977924180979L937.0625,270.6202806936954L942.7416666666667,270.8257138680823L948.4208333333333,271.96500548326287L954.0999999999999,271.5243403429437L959.7791666666667,271.38020855790404L965.4583333333334,271.7218990373909L971.1375,271.45249867660095L976.8166666666667,271.8373879133911L982.4958333333333,272.4489996137945L988.175,272.96128680238877L993.8541666666666,272.17767680353L999.5333333333333,272.729013678225L1005.2125000000001,273.34158684330845L1010.8916666666667,273.53723201824084L1016.5708333333333,273.9704590705577L1022.25,274.46624689199837L1027.9291666666666,274.91701449442496L1033.6083333333333,276.1861253352802L1039.2875,276.50100707603417L1044.9666666666667,276.3905726769911L1050.6458333333335,277.2560317925615L1056.325,278.32406492071993L1062.0041666666666,278.83099550218986L1067.6833333333334,278.91003212008644L1073.3625,279.0874367279935L1079.0416666666665,279.8613068218175L1084.7208333333333,280.49538163645934L1090.4,281.30551541206245L1096.0791666666667,281.234654629739L1101.7583333333334,281.78992538039546L1107.4375,282.2726592349239L1113.1166666666666,282.127537757865L1118.7958333333333,282.76238964027846L1124.475,283.546093894935L1130.1541666666667,284.26173801334704L1135.8333333333335,284.53573902361865L1141.5125,283.76688596316336L1147.1916666666666,283.7781217747735L1152.8708333333334,283.74635722135974L1158.55,283.83765284524435L1164.2291666666665,284.66900804798445L1169.9083333333333,284.50194823519286L1175.5875,284.89831091448747L1181.2666666666667,285.1386624046833L1186.9458333333334,285.0623609720225L1192.625,285.5981689185251L1198.3041666666666,286.1746077868514L1203.9833333333333,286.82902766432005L1209.6625,287.34980641420293L1215.3416666666667,288.7426501594483L1221.0208333333335,289.119835248032L1226.7,289.86043546056476L1232.3791666666666,289.9681380124608L1238.0583333333334,290.49290724176143" style="fill: none;" fill="none"></path></g></g></g></g><g opacity="0.2"><g><g><g><path stroke="rgb(255, 112, 67)" stroke-width="2px" d="M113.58333333333333,138.5078811943531L119.26249999999999,70.19442654401064L124.94166666666666,-35.070970103144646L130.62083333333334,85.41589397192001L136.3,30.028148733079433L141.97916666666669,52.481044448912144L147.65833333333333,8.793275982141495L153.3375,41.99187382310629L159.01666666666668,212.65534161776307L164.69583333333333,181.7775670364499L170.375,57.537358805537224L176.05416666666667,235.7896458283067L181.73333333333332,243.42915880680087L187.41250000000002,187.81350291520357L193.09166666666667,70.99394443631172L198.77083333333334,173.10115563869476L204.45,100.14049223810434L210.12916666666666,318.58461517095566L215.80833333333334,323.50442604348063L221.4875,168.64140815287828L227.16666666666666,166.93933027982712L232.84583333333333,167.30854976177216L238.52499999999998,165.5567990541458L244.20416666666668,212.39518410712483L249.88333333333333,307.93917401880026L255.5625,178.94769403338432L261.2416666666667,238.8178581297398L266.92083333333335,303.4144751653075L272.6,266.4735872223973L278.27916666666664,173.18476512283087L283.95833333333337,24.122467629611492L289.6375,162.71833627671003L295.31666666666666,267.1880874708295L300.99583333333334,261.83081417530775L306.675,297.85023759305477L312.35416666666663,224.4395967498422L318.03333333333336,267.01752412319183L323.7125,160.6199670508504L329.39166666666665,313.16302417963743L335.0708333333333,353.5308800563216L340.75,120.0807733386755L346.4291666666667,358.6004839204252L352.10833333333335,240.87961520254615L357.7875,263.5292308330536L363.46666666666664,294.1203745007515L369.1458333333333,270.32342552393675L374.82500000000005,259.05163492262363L380.50416666666666,175.73814596235752L386.18333333333334,243.49513109028342L391.86249999999995,248.70011191070083L397.5416666666667,215.31444004923108L403.22083333333336,199.08325168490413L408.9,199.12232811748984L414.57916666666665,178.31525429338217L420.2583333333333,364.5954599529505L425.9375,298.5917393043637L431.6166666666667,327.44810058921576L437.29583333333335,314.8700658157468L442.975,408.6407073698938L448.65416666666664,289.95686861872673L454.3333333333333,254.04369085282087L460.01250000000005,298.1994612067938L465.69166666666666,189.01269174367192L471.37083333333334,279.81047927588224L477.04999999999995,365.88464779034257L482.7291666666667,326.67311988025904L488.40833333333336,221.59324827790263L494.0875,295.9050409421325L499.76666666666665,413.2742041647434L505.4458333333333,287.55725882202387L511.125,228.98341137170794L516.8041666666667,230.08536677062514L522.4833333333333,150.72680003196L528.1625,374.36393442749977L533.8416666666667,370.0988474227488L539.5208333333333,368.30545039102435L545.2,334.1425447650254L550.8791666666667,391.43760715797544L556.5583333333333,273.273660980165L562.2375,234.32396277040246L567.9166666666667,417.2999568209052L573.5958333333333,184.97416003793478L579.275,373.6312513165176L584.9541666666667,183.80711245536804L590.6333333333333,223.34204185009006L596.3125,269.1519070342183L601.9916666666667,329.8143370002508L607.6708333333333,279.20465375483036L613.35,363.6330883875489L619.0291666666667,343.33163191750646L624.7083333333333,315.75456614792347L630.3875,420.6785016618669L636.0666666666667,392.6535002812743L641.7458333333333,369.26394951716065L647.425,336.64111298695207L653.1041666666667,255.9103473946452L658.7833333333333,344.26212626695633L664.4625,328.8305614069104L670.1416666666667,317.71761122345924L675.8208333333333,292.60410330444574L681.5,268.569210536778L687.1791666666667,374.245649009943L692.8583333333333,335.193243149668L698.5374999999999,265.8250240534544L704.2166666666667,301.21992862969637L709.8958333333334,281.97517282515764L715.575,399.68123826384544L721.2541666666667,260.787790261209L726.9333333333333,291.24962966144085L732.6125,312.00178525596857L738.2916666666666,314.9343835115433L743.9708333333333,169.18752770125866L749.6500000000001,260.774166315794L755.3291666666667,315.07748774439096L761.0083333333333,296.58226016163826L766.6875,244.73427645117047L772.3666666666667,162.628143645823L778.0458333333333,315.92738255113363L783.7249999999999,306.4693720936775L789.4041666666667,289.4183883368969L795.0833333333334,302.08791828900576L800.7625,327.27208062261343L806.4416666666667,354.90006896853447L812.1208333333333,290.0612484589219L817.8,357.9813864938915L823.4791666666666,293.9173530712724L829.1583333333333,308.1453286036849L834.8375000000001,345.1051034890115L840.5166666666667,63.305251479148865L846.1958333333333,257.0314185619354L851.875,435.24468195810914L857.5541666666667,322.8043418303132L863.2333333333333,370.39427933469415L868.9124999999999,304.41983080655336L874.5916666666667,260.53087151795626L880.2708333333334,326.5885950922966L885.95,349.9968567788601L891.6291666666667,295.6458691433072L897.3083333333333,385.63179978355765L902.9875,397.4030294381082L908.6666666666666,231.86369649320844L914.3458333333333,306.85714408010244L920.0250000000001,384.70176308602095L925.7041666666667,348.0655128993094L931.3833333333333,361.4613364376128L937.0625,411.7449955008924L942.7416666666667,296.8071432709694L948.4208333333333,416.9016940444708L954.0999999999999,215.136800698936L959.7791666666667,252.8301387950778L965.4583333333334,315.9512508586049L971.1375,236.38146016001704L976.8166666666667,322.2268907278776L982.4958333333333,352.9711365625262L988.175,340.783162035048L993.8541666666666,167.86072439700365L999.5333333333333,346.52838333696127L1005.2125000000001,355.7851149626076L1010.8916666666667,300.010847479105L1016.5708333333333,332.9074478633702L1022.25,342.2740159481764L1027.9291666666666,336.89403607696295L1033.6083333333333,451.596532009542L1039.2875,320.2496584430337L1044.9666666666667,260.96764746308327L1050.6458333333335,398.74535770341754L1056.325,429.0158810019493L1062.0041666666666,350.71813379600644L1067.6833333333334,290.1745701134205L1073.3625,304.4981596916914L1079.0416666666665,391.25797878205776L1084.7208333333333,372.21913113445044L1090.4,399.07166351750493L1096.0791666666667,270.8837674856186L1101.7583333333334,363.2922433242202L1107.4375,353.46811133623123L1113.1166666666666,260.6224371045828L1118.7958333333333,377.28454572334886L1124.475,400.77942683547735L1130.1541666666667,391.81414907053113L1135.8333333333335,325.90577843785286L1141.5125,167.14647057652473L1147.1916666666666,285.4901859462261L1152.8708333333334,278.88419180363417L1158.55,297.87533804029226L1164.2291666666665,413.072854924947L1169.9083333333333,258.5842315033078L1175.5875,346.6627393774688L1181.2666666666667,322.75713327527046L1186.9458333333334,273.06782323122025L1192.625,370.193123716861L1198.3041666666666,377.577759783715L1203.9833333333333,391.04282957687974L1209.6625,370.6356555148959L1215.3416666666667,512.4385639484972L1221.0208333333335,349.9524469412863L1226.7,409.8050618469715L1232.3791666666666,307.48381036520004L1238.0583333333334,376.18919107317924" style="fill: none;" fill="none"></path></g></g></g></g></g></g><g transform="translate(70, 378)" clip-path="url(#clip_1)"><clipPath id="clip_1"><rect width="1363" height="22"></rect></clipPath><g><g><line x1="0" y1="0" x2="0" y2="5" style="visibility: inherit;" fill="rgb(0, 0, 0)" stroke="rgb(204, 204, 204)" stroke-width="1px"></line><line x1="113.58333333333333" y1="0" x2="113.58333333333333" y2="5" style="visibility: inherit;" fill="rgb(0, 0, 0)" stroke="rgb(204, 204, 204)" stroke-width="1px"></line><line x1="227.16666666666666" y1="0" x2="227.16666666666666" y2="5" style="visibility: inherit;" fill="rgb(0, 0, 0)" stroke="rgb(204, 204, 204)" stroke-width="1px"></line><line x1="340.75" y1="0" x2="340.75" y2="5" style="visibility: inherit;" fill="rgb(0, 0, 0)" stroke="rgb(204, 204, 204)" stroke-width="1px"></line><line x1="454.3333333333333" y1="0" x2="454.3333333333333" y2="5" style="visibility: inherit;" fill="rgb(0, 0, 0)" stroke="rgb(204, 204, 204)" stroke-width="1px"></line><line x1="567.9166666666667" y1="0" x2="567.9166666666667" y2="5" style="visibility: inherit;" fill="rgb(0, 0, 0)" stroke="rgb(204, 204, 204)" stroke-width="1px"></line><line x1="681.5" y1="0" x2="681.5" y2="5" style="visibility: inherit;" fill="rgb(0, 0, 0)" stroke="rgb(204, 204, 204)" stroke-width="1px"></line><line x1="795.0833333333334" y1="0" x2="795.0833333333334" y2="5" style="visibility: inherit;" fill="rgb(0, 0, 0)" stroke="rgb(204, 204, 204)" stroke-width="1px"></line><line x1="908.6666666666666" y1="0" x2="908.6666666666666" y2="5" style="visibility: inherit;" fill="rgb(0, 0, 0)" stroke="rgb(204, 204, 204)" stroke-width="1px"></line><line x1="1022.25" y1="0" x2="1022.25" y2="5" style="visibility: inherit;" fill="rgb(0, 0, 0)" stroke="rgb(204, 204, 204)" stroke-width="1px"></line><line x1="1135.8333333333335" y1="0" x2="1135.8333333333335" y2="5" style="visibility: inherit;" fill="rgb(0, 0, 0)" stroke="rgb(204, 204, 204)" stroke-width="1px"></line><line x1="1249.4166666666665" y1="0" x2="1249.4166666666665" y2="5" style="visibility: inherit;" fill="rgb(0, 0, 0)" stroke="rgb(204, 204, 204)" stroke-width="1px"></line><line x1="1363" y1="0" x2="1363" y2="5" style="visibility: inherit;" fill="rgb(0, 0, 0)" stroke="rgb(204, 204, 204)" stroke-width="1px"></line></g><g transform="translate(0, 8)"><text x="0" y="0" dx="0em" dy="0.95em" style="text-anchor: middle; visibility: hidden; font-family: &quot;Helvetica Neue&quot;, sans-serif; font-size: 12px; font-weight: 200;" fill="rgb(50, 49, 63)" stroke="none" stroke-width="1px">-20</text><text x="113.58333333333333" y="0" dx="0em" dy="0.95em" style="text-anchor: middle; visibility: inherit; font-family: &quot;Helvetica Neue&quot;, sans-serif; font-size: 12px; font-weight: 200;" fill="rgb(50, 49, 63)" stroke="none" stroke-width="1px">0</text><text x="227.16666666666666" y="0" dx="0em" dy="0.95em" style="text-anchor: middle; visibility: inherit; font-family: &quot;Helvetica Neue&quot;, sans-serif; font-size: 12px; font-weight: 200;" fill="rgb(50, 49, 63)" stroke="none" stroke-width="1px">20</text><text x="340.75" y="0" dx="0em" dy="0.95em" style="text-anchor: middle; visibility: inherit; font-family: &quot;Helvetica Neue&quot;, sans-serif; font-size: 12px; font-weight: 200;" fill="rgb(50, 49, 63)" stroke="none" stroke-width="1px">40</text><text x="454.3333333333333" y="0" dx="0em" dy="0.95em" style="text-anchor: middle; visibility: inherit; font-family: &quot;Helvetica Neue&quot;, sans-serif; font-size: 12px; font-weight: 200;" fill="rgb(50, 49, 63)" stroke="none" stroke-width="1px">60</text><text x="567.9166666666667" y="0" dx="0em" dy="0.95em" style="text-anchor: middle; visibility: inherit; font-family: &quot;Helvetica Neue&quot;, sans-serif; font-size: 12px; font-weight: 200;" fill="rgb(50, 49, 63)" stroke="none" stroke-width="1px">80</text><text x="681.5" y="0" dx="0em" dy="0.95em" style="text-anchor: middle; visibility: inherit; font-family: &quot;Helvetica Neue&quot;, sans-serif; font-size: 12px; font-weight: 200;" fill="rgb(50, 49, 63)" stroke="none" stroke-width="1px">100</text><text x="795.0833333333334" y="0" dx="0em" dy="0.95em" style="text-anchor: middle; visibility: inherit; font-family: &quot;Helvetica Neue&quot;, sans-serif; font-size: 12px; font-weight: 200;" fill="rgb(50, 49, 63)" stroke="none" stroke-width="1px">120</text><text x="908.6666666666666" y="0" dx="0em" dy="0.95em" style="text-anchor: middle; visibility: inherit; font-family: &quot;Helvetica Neue&quot;, sans-serif; font-size: 12px; font-weight: 200;" fill="rgb(50, 49, 63)" stroke="none" stroke-width="1px">140</text><text x="1022.25" y="0" dx="0em" dy="0.95em" style="text-anchor: middle; visibility: inherit; font-family: &quot;Helvetica Neue&quot;, sans-serif; font-size: 12px; font-weight: 200;" fill="rgb(50, 49, 63)" stroke="none" stroke-width="1px">160</text><text x="1135.8333333333335" y="0" dx="0em" dy="0.95em" style="text-anchor: middle; visibility: inherit; font-family: &quot;Helvetica Neue&quot;, sans-serif; font-size: 12px; font-weight: 200;" fill="rgb(50, 49, 63)" stroke="none" stroke-width="1px">180</text><text x="1249.4166666666665" y="0" dx="0em" dy="0.95em" style="text-anchor: middle; visibility: inherit; font-family: &quot;Helvetica Neue&quot;, sans-serif; font-size: 12px; font-weight: 200;" fill="rgb(50, 49, 63)" stroke="none" stroke-width="1px">200</text><text x="1363" y="0" dx="0em" dy="0.95em" style="text-anchor: middle; visibility: hidden; font-family: &quot;Helvetica Neue&quot;, sans-serif; font-size: 12px; font-weight: 200;" fill="rgb(50, 49, 63)" stroke="none" stroke-width="1px">220</text></g><line x1="0" y1="0" x2="1363" y2="0" fill="rgb(0, 0, 0)" stroke="rgb(204, 204, 204)" stroke-width="1px"></line></g></g></g></g></svg>